<?xml version="1.0" encoding="UTF-8" ?>
<svg version="1.1" width="100" height="41" xmlns="http://www.w3.org/2000/svg" shape-rendering="crispEdges">
<rect x="7" y="0" width="86" height="4" fill="#05080F" />
<rect x="3" y="4" width="4" height="4" fill="#05080F" />
<rect x="7" y="4" width="39" height="17" fill="#EAB265" />
<rect x="46" y="4" width="2" height="4" fill="#E0A968" />
<rect x="48" y="4" width="1" height="17" fill="#C5A278" />
<rect x="49" y="4" width="3" height="26" fill="#05080F" />
<rect x="52" y="4" width="4" height="3" fill="#646873" />
<rect x="56" y="4" width="1" height="3" fill="#373743" />
<rect x="57" y="4" width="3" height="26" fill="#05080F" />
<rect x="60" y="4" width="32" height="14" fill="#EAB265" />
<rect x="92" y="4" width="1" height="4" fill="#090000" />
<rect x="93" y="4" width="4" height="4" fill="#05080F" />
<rect x="0" y="7" width="3" height="30" fill="#05080F" />
<rect x="52" y="7" width="4" height="20" fill="#3E4349" />
<rect x="56" y="7" width="1" height="20" fill="#313139" />
<rect x="97" y="7" width="3" height="30" fill="#05080F" />
<rect x="3" y="8" width="1" height="29" fill="#05080F" />
<rect x="4" y="8" width="3" height="19" fill="#EAB265" />
<rect x="46" y="8" width="1" height="13" fill="#EAB265" />
<rect x="47" y="8" width="1" height="1" fill="#E0A968" />
<rect x="92" y="8" width="4" height="18" fill="#C18E55" />
<rect x="96" y="8" width="1" height="29" fill="#05080F" />
<rect x="47" y="9" width="1" height="12" fill="#EAB265" />
<rect x="60" y="18" width="20" height="3" fill="#EAB265" />
<rect x="80" y="18" width="1" height="3" fill="#E4A95B" />
<rect x="81" y="18" width="3" height="3" fill="#DFA456" />
<rect x="84" y="18" width="4" height="3" fill="#EAB265" />
<rect x="88" y="18" width="1" height="2" fill="#E5B261" />
<rect x="89" y="18" width="2" height="2" fill="#DEAB5A" />
<rect x="91" y="18" width="1" height="3" fill="#E3AE6A" />
<rect x="88" y="20" width="1" height="1" fill="#EAB265" />
<rect x="89" y="20" width="2" height="1" fill="#E3AE6A" />
<rect x="7" y="21" width="8" height="4" fill="#EAB265" />
<rect x="15" y="21" width="33" height="5" fill="#C18E55" />
<rect x="48" y="21" width="1" height="5" fill="#9E7D5C" />
<rect x="60" y="21" width="32" height="5" fill="#C18E55" />
<rect x="7" y="25" width="1" height="2" fill="#EAB265" />
<rect x="8" y="25" width="7" height="1" fill="#C18E55" />
<rect x="8" y="26" width="1" height="1" fill="#C18E55" />
<rect x="9" y="26" width="39" height="1" fill="#CE9F69" />
<rect x="48" y="26" width="1" height="1" fill="#9B7E60" />
<rect x="60" y="26" width="36" height="1" fill="#CE9F69" />
<rect x="4" y="27" width="45" height="3" fill="#05080F" />
<rect x="52" y="27" width="5" height="3" fill="#05080F" />
<rect x="60" y="27" width="36" height="3" fill="#05080F" />
<rect x="4" y="30" width="92" height="3" fill="#646873" />
<rect x="4" y="33" width="3" height="4" fill="#191C23" />
<rect x="7" y="33" width="86" height="2" fill="#3E4349" />
<rect x="93" y="33" width="3" height="4" fill="#191C23" />
<rect x="7" y="35" width="86" height="1" fill="#646873" />
<rect x="7" y="36" width="86" height="1" fill="#3E4349" />
<rect x="4" y="37" width="92" height="4" fill="#05080F" />
</svg>