<?xml version="1.0" encoding="UTF-8" ?>
<svg version="1.1" width="360" height="360" xmlns="http://www.w3.org/2000/svg" shape-rendering="crispEdges">
<rect x="142" y="4" width="12" height="5" fill="#02326B" />
<rect x="206" y="4" width="12" height="5" fill="#02326B" />
<rect x="137" y="9" width="5" height="28" fill="#02326B" />
<rect x="142" y="9" width="12" height="7" fill="#E3C7B9" />
<rect x="154" y="9" width="5" height="7" fill="#02326B" />
<rect x="201" y="9" width="5" height="7" fill="#02326B" />
<rect x="206" y="9" width="12" height="7" fill="#E3C7B9" />
<rect x="218" y="9" width="5" height="28" fill="#02326B" />
<rect x="142" y="16" width="7" height="21" fill="#E3C7B9" />
<rect x="149" y="16" width="5" height="16" fill="#02326B" />
<rect x="206" y="16" width="5" height="16" fill="#02326B" />
<rect x="211" y="16" width="7" height="21" fill="#E3C7B9" />
<rect x="120" y="32" width="12" height="5" fill="#02326B" />
<rect x="149" y="32" width="5" height="31" fill="#E3C7B9" />
<rect x="154" y="32" width="5" height="31" fill="#02326B" />
<rect x="201" y="32" width="5" height="31" fill="#02326B" />
<rect x="206" y="32" width="5" height="31" fill="#E3C7B9" />
<rect x="228" y="32" width="12" height="5" fill="#02326B" />
<rect x="115" y="37" width="5" height="6" fill="#02326B" />
<rect x="120" y="37" width="12" height="6" fill="#E3C7B9" />
<rect x="132" y="37" width="5" height="5" fill="#02326B" />
<rect x="142" y="37" width="5" height="5" fill="#02326B" />
<rect x="147" y="37" width="2" height="26" fill="#E3C7B9" />
<rect x="211" y="37" width="2" height="26" fill="#E3C7B9" />
<rect x="213" y="37" width="5" height="5" fill="#02326B" />
<rect x="223" y="37" width="5" height="5" fill="#02326B" />
<rect x="228" y="37" width="12" height="6" fill="#E3C7B9" />
<rect x="240" y="37" width="5" height="6" fill="#02326B" />
<rect x="177" y="41" width="6" height="5" fill="#02326B" />
<rect x="132" y="42" width="5" height="6" fill="#E3C7B9" />
<rect x="137" y="42" width="5" height="5" fill="#02326B" />
<rect x="142" y="42" width="5" height="16" fill="#E3C7B9" />
<rect x="213" y="42" width="5" height="16" fill="#E3C7B9" />
<rect x="218" y="42" width="5" height="5" fill="#02326B" />
<rect x="223" y="42" width="5" height="6" fill="#E3C7B9" />
<rect x="120" y="43" width="8" height="5" fill="#02326B" />
<rect x="128" y="43" width="4" height="5" fill="#E3C7B9" />
<rect x="228" y="43" width="4" height="5" fill="#E3C7B9" />
<rect x="232" y="43" width="8" height="5" fill="#02326B" />
<rect x="172" y="46" width="5" height="7" fill="#02326B" />
<rect x="177" y="46" width="6" height="42" fill="#9DD6F3" />
<rect x="183" y="46" width="5" height="7" fill="#02326B" />
<rect x="137" y="47" width="5" height="6" fill="#E3C7B9" />
<rect x="218" y="47" width="5" height="6" fill="#E3C7B9" />
<rect x="128" y="48" width="5" height="5" fill="#02326B" />
<rect x="133" y="48" width="4" height="5" fill="#E3C7B9" />
<rect x="223" y="48" width="4" height="5" fill="#E3C7B9" />
<rect x="227" y="48" width="5" height="5" fill="#02326B" />
<rect x="116" y="52" width="10" height="5" fill="#02326B" />
<rect x="234" y="52" width="10" height="5" fill="#02326B" />
<rect x="133" y="53" width="7" height="5" fill="#02326B" />
<rect x="140" y="53" width="2" height="5" fill="#E3C7B9" />
<rect x="165" y="53" width="7" height="5" fill="#02326B" />
<rect x="172" y="53" width="5" height="35" fill="#9DD6F3" />
<rect x="183" y="53" width="5" height="35" fill="#9DD6F3" />
<rect x="188" y="53" width="7" height="5" fill="#02326B" />
<rect x="218" y="53" width="2" height="5" fill="#E3C7B9" />
<rect x="220" y="53" width="7" height="5" fill="#02326B" />
<rect x="111" y="57" width="5" height="16" fill="#02326B" />
<rect x="116" y="57" width="10" height="16" fill="#9DD6F3" />
<rect x="126" y="57" width="5" height="5" fill="#02326B" />
<rect x="229" y="57" width="5" height="5" fill="#02326B" />
<rect x="234" y="57" width="10" height="16" fill="#9DD6F3" />
<rect x="244" y="57" width="5" height="16" fill="#02326B" />
<rect x="140" y="58" width="5" height="5" fill="#02326B" />
<rect x="145" y="58" width="2" height="5" fill="#E3C7B9" />
<rect x="159" y="58" width="6" height="5" fill="#02326B" />
<rect x="165" y="58" width="7" height="35" fill="#9DD6F3" />
<rect x="188" y="58" width="7" height="35" fill="#9DD6F3" />
<rect x="195" y="58" width="6" height="5" fill="#02326B" />
<rect x="213" y="58" width="2" height="5" fill="#E3C7B9" />
<rect x="215" y="58" width="5" height="5" fill="#02326B" />
<rect x="126" y="62" width="5" height="11" fill="#9DD6F3" />
<rect x="131" y="62" width="5" height="6" fill="#02326B" />
<rect x="224" y="62" width="5" height="6" fill="#02326B" />
<rect x="229" y="62" width="5" height="11" fill="#9DD6F3" />
<rect x="145" y="63" width="9" height="5" fill="#02326B" />
<rect x="154" y="63" width="11" height="35" fill="#9DD6F3" />
<rect x="195" y="63" width="11" height="47" fill="#9DD6F3" />
<rect x="206" y="63" width="9" height="5" fill="#02326B" />
<rect x="131" y="68" width="5" height="5" fill="#9DD6F3" />
<rect x="136" y="68" width="9" height="5" fill="#02326B" />
<rect x="145" y="68" width="9" height="56" fill="#9DD6F3" />
<rect x="206" y="68" width="9" height="116" fill="#9DD6F3" />
<rect x="215" y="68" width="9" height="5" fill="#02326B" />
<rect x="224" y="68" width="5" height="5" fill="#9DD6F3" />
<rect x="116" y="73" width="6" height="5" fill="#02326B" />
<rect x="122" y="73" width="8" height="5" fill="#9DD6F3" />
<rect x="130" y="73" width="6" height="5" fill="#02326B" />
<rect x="136" y="73" width="9" height="20" fill="#9DD6F3" />
<rect x="215" y="73" width="9" height="106" fill="#9DD6F3" />
<rect x="224" y="73" width="6" height="5" fill="#02326B" />
<rect x="230" y="73" width="8" height="5" fill="#9DD6F3" />
<rect x="238" y="73" width="6" height="5" fill="#02326B" />
<rect x="122" y="78" width="8" height="5" fill="#02326B" />
<rect x="130" y="78" width="6" height="15" fill="#9DD6F3" />
<rect x="224" y="78" width="6" height="43" fill="#9DD6F3" />
<rect x="230" y="78" width="8" height="5" fill="#02326B" />
<rect x="116" y="83" width="6" height="5" fill="#02326B" />
<rect x="122" y="83" width="8" height="10" fill="#9DD6F3" />
<rect x="230" y="83" width="8" height="33" fill="#9DD6F3" />
<rect x="238" y="83" width="6" height="5" fill="#02326B" />
<rect x="111" y="88" width="5" height="6" fill="#02326B" />
<rect x="116" y="88" width="6" height="32" fill="#9DD6F3" />
<rect x="172" y="88" width="3" height="5" fill="#9DD6F3" />
<rect x="175" y="88" width="11" height="20" fill="#FFFFFF" />
<rect x="186" y="88" width="2" height="5" fill="#9DD6F3" />
<rect x="238" y="88" width="6" height="28" fill="#9DD6F3" />
<rect x="244" y="88" width="5" height="6" fill="#02326B" />
<rect x="273" y="92" width="12" height="5" fill="#02326B" />
<rect x="122" y="93" width="1" height="27" fill="#9DD6F3" />
<rect x="123" y="93" width="16" height="10" fill="#FFFFFF" />
<rect x="139" y="93" width="6" height="5" fill="#9DD6F3" />
<rect x="165" y="93" width="4" height="5" fill="#9DD6F3" />
<rect x="169" y="93" width="6" height="20" fill="#FFFFFF" />
<rect x="186" y="93" width="5" height="10" fill="#FFFFFF" />
<rect x="191" y="93" width="4" height="17" fill="#9DD6F3" />
<rect x="106" y="94" width="5" height="10" fill="#02326B" />
<rect x="111" y="94" width="5" height="36" fill="#9DD6F3" />
<rect x="244" y="94" width="5" height="22" fill="#9DD6F3" />
<rect x="249" y="94" width="5" height="10" fill="#02326B" />
<rect x="268" y="97" width="5" height="11" fill="#02326B" />
<rect x="285" y="97" width="5" height="5" fill="#02326B" />
<rect x="139" y="98" width="5" height="10" fill="#FFFFFF" />
<rect x="144" y="98" width="1" height="31" fill="#9DD6F3" />
<rect x="154" y="98" width="9" height="26" fill="#9DD6F3" />
<rect x="163" y="98" width="6" height="10" fill="#FFFFFF" />
<rect x="290" y="102" width="5" height="15" fill="#02326B" />
<rect x="123" y="103" width="4" height="12" fill="#9DD6F3" />
<rect x="127" y="103" width="12" height="5" fill="#FFFFFF" />
<rect x="186" y="103" width="5" height="7" fill="#9DD6F3" />
<rect x="101" y="104" width="5" height="19" fill="#02326B" />
<rect x="106" y="104" width="5" height="26" fill="#9DD6F3" />
<rect x="249" y="104" width="5" height="12" fill="#9DD6F3" />
<rect x="254" y="104" width="5" height="19" fill="#02326B" />
<rect x="127" y="108" width="17" height="7" fill="#9DD6F3" />
<rect x="163" y="108" width="6" height="43" fill="#9DD6F3" />
<rect x="175" y="108" width="4" height="5" fill="#FFFFFF" />
<rect x="179" y="108" width="7" height="2" fill="#9DD6F3" />
<rect x="273" y="108" width="11" height="5" fill="#02326B" />
<rect x="179" y="110" width="6" height="5" fill="#9DD6F3" />
<rect x="185" y="110" width="13" height="26" fill="#02326B" />
<rect x="198" y="110" width="8" height="5" fill="#9DD6F3" />
<rect x="75" y="112" width="12" height="5" fill="#02326B" />
<rect x="169" y="113" width="10" height="38" fill="#9DD6F3" />
<rect x="123" y="115" width="11" height="23" fill="#02326B" />
<rect x="134" y="115" width="10" height="5" fill="#9DD6F3" />
<rect x="179" y="115" width="1" height="36" fill="#9DD6F3" />
<rect x="180" y="115" width="5" height="16" fill="#02326B" />
<rect x="198" y="115" width="5" height="16" fill="#02326B" />
<rect x="203" y="115" width="3" height="64" fill="#9DD6F3" />
<rect x="230" y="116" width="1" height="5" fill="#9DD6F3" />
<rect x="231" y="116" width="21" height="17" fill="#FFB4B1" />
<rect x="252" y="116" width="2" height="5" fill="#9DD6F3" />
<rect x="70" y="117" width="5" height="5" fill="#02326B" />
<rect x="87" y="117" width="5" height="11" fill="#02326B" />
<rect x="285" y="117" width="5" height="6" fill="#02326B" />
<rect x="116" y="120" width="2" height="15" fill="#9DD6F3" />
<rect x="118" y="120" width="5" height="13" fill="#02326B" />
<rect x="134" y="120" width="5" height="13" fill="#02326B" />
<rect x="139" y="120" width="5" height="9" fill="#9DD6F3" />
<rect x="224" y="121" width="2" height="58" fill="#9DD6F3" />
<rect x="226" y="121" width="5" height="22" fill="#FFB4B1" />
<rect x="252" y="121" width="2" height="7" fill="#FFB4B1" />
<rect x="65" y="122" width="5" height="15" fill="#02326B" />
<rect x="96" y="123" width="5" height="36" fill="#02326B" />
<rect x="101" y="123" width="5" height="7" fill="#9DD6F3" />
<rect x="254" y="123" width="3" height="5" fill="#FFB4B1" />
<rect x="259" y="123" width="5" height="36" fill="#02326B" />
<rect x="273" y="123" width="12" height="5" fill="#02326B" />
<rect x="145" y="124" width="1" height="5" fill="#9DD6F3" />
<rect x="146" y="124" width="12" height="5" fill="#02326B" />
<rect x="158" y="124" width="5" height="12" fill="#9DD6F3" />
<rect x="76" y="128" width="11" height="5" fill="#02326B" />
<rect x="252" y="128" width="7" height="5" fill="#02326B" />
<rect x="264" y="128" width="9" height="5" fill="#02326B" />
<rect x="139" y="129" width="2" height="17" fill="#9DD6F3" />
<rect x="141" y="129" width="5" height="5" fill="#02326B" />
<rect x="146" y="129" width="12" height="7" fill="#9DD6F3" />
<rect x="101" y="130" width="11" height="18" fill="#FFB4B1" />
<rect x="112" y="130" width="4" height="5" fill="#9DD6F3" />
<rect x="180" y="131" width="5" height="20" fill="#9DD6F3" />
<rect x="198" y="131" width="5" height="48" fill="#9DD6F3" />
<rect x="118" y="133" width="5" height="49" fill="#9DD6F3" />
<rect x="134" y="133" width="5" height="18" fill="#9DD6F3" />
<rect x="231" y="133" width="12" height="15" fill="#FFB4B1" />
<rect x="243" y="133" width="9" height="5" fill="#02326B" />
<rect x="252" y="133" width="5" height="10" fill="#FFB4B1" />
<rect x="257" y="133" width="2" height="26" fill="#9DD6F3" />
<rect x="141" y="134" width="5" height="3" fill="#9DD6F3" />
<rect x="112" y="135" width="5" height="18" fill="#FFB4B1" />
<rect x="117" y="135" width="1" height="47" fill="#9DD6F3" />
<rect x="146" y="136" width="8" height="1" fill="#9DD6F3" />
<rect x="154" y="136" width="5" height="5" fill="#02326B" />
<rect x="159" y="136" width="4" height="15" fill="#9DD6F3" />
<rect x="185" y="136" width="13" height="15" fill="#9DD6F3" />
<rect x="70" y="137" width="5" height="6" fill="#02326B" />
<rect x="141" y="137" width="3" height="9" fill="#9DD6F3" />
<rect x="144" y="137" width="5" height="5" fill="#02326B" />
<rect x="149" y="137" width="5" height="9" fill="#9DD6F3" />
<rect x="123" y="138" width="11" height="13" fill="#9DD6F3" />
<rect x="243" y="138" width="9" height="10" fill="#FFB4B1" />
<rect x="154" y="141" width="5" height="5" fill="#9DD6F3" />
<rect x="144" y="142" width="5" height="4" fill="#9DD6F3" />
<rect x="75" y="143" width="12" height="5" fill="#02326B" />
<rect x="226" y="143" width="5" height="36" fill="#9DD6F3" />
<rect x="252" y="143" width="5" height="16" fill="#9DD6F3" />
<rect x="139" y="146" width="16" height="5" fill="#02326B" />
<rect x="155" y="146" width="4" height="5" fill="#9DD6F3" />
<rect x="87" y="148" width="9" height="5" fill="#02326B" />
<rect x="101" y="148" width="7" height="5" fill="#02326B" />
<rect x="108" y="148" width="4" height="5" fill="#FFB4B1" />
<rect x="231" y="148" width="21" height="18" fill="#9DD6F3" />
<rect x="123" y="151" width="3" height="36" fill="#9DD6F3" />
<rect x="126" y="151" width="13" height="5" fill="#02326B" />
<rect x="139" y="151" width="16" height="41" fill="#9DD6F3" />
<rect x="155" y="151" width="40" height="5" fill="#02326B" />
<rect x="195" y="151" width="3" height="23" fill="#9DD6F3" />
<rect x="101" y="153" width="7" height="6" fill="#FFB4B1" />
<rect x="108" y="153" width="9" height="5" fill="#02326B" />
<rect x="126" y="156" width="5" height="31" fill="#9DD6F3" />
<rect x="131" y="156" width="5" height="5" fill="#FFFFFF" />
<rect x="136" y="156" width="3" height="31" fill="#9DD6F3" />
<rect x="155" y="156" width="25" height="23" fill="#9DD6F3" />
<rect x="180" y="156" width="5" height="5" fill="#FFFFFF" />
<rect x="185" y="156" width="10" height="18" fill="#9DD6F3" />
<rect x="108" y="158" width="9" height="1" fill="#FFB4B1" />
<rect x="101" y="159" width="5" height="14" fill="#02326B" />
<rect x="106" y="159" width="7" height="5" fill="#FFB4B1" />
<rect x="113" y="159" width="4" height="23" fill="#9DD6F3" />
<rect x="252" y="159" width="2" height="7" fill="#9DD6F3" />
<rect x="254" y="159" width="5" height="7" fill="#02326B" />
<rect x="131" y="161" width="5" height="26" fill="#9DD6F3" />
<rect x="180" y="161" width="5" height="13" fill="#9DD6F3" />
<rect x="106" y="164" width="7" height="9" fill="#9DD6F3" />
<rect x="231" y="166" width="18" height="8" fill="#9DD6F3" />
<rect x="249" y="166" width="5" height="8" fill="#02326B" />
<rect x="106" y="173" width="5" height="9" fill="#02326B" />
<rect x="111" y="173" width="2" height="9" fill="#9DD6F3" />
<rect x="180" y="174" width="3" height="5" fill="#9DD6F3" />
<rect x="183" y="174" width="14" height="5" fill="#02326B" />
<rect x="197" y="174" width="1" height="5" fill="#9DD6F3" />
<rect x="231" y="174" width="12" height="5" fill="#9DD6F3" />
<rect x="243" y="174" width="6" height="5" fill="#02326B" />
<rect x="155" y="179" width="21" height="5" fill="#9DD6F3" />
<rect x="176" y="179" width="7" height="5" fill="#02326B" />
<rect x="183" y="179" width="14" height="26" fill="#9DD6F3" />
<rect x="197" y="179" width="8" height="5" fill="#02326B" />
<rect x="205" y="179" width="1" height="5" fill="#9DD6F3" />
<rect x="215" y="179" width="8" height="5" fill="#9DD6F3" />
<rect x="223" y="179" width="20" height="5" fill="#02326B" />
<rect x="98" y="182" width="8" height="5" fill="#02326B" />
<rect x="106" y="182" width="5" height="30" fill="#9DD6F3" />
<rect x="111" y="182" width="11" height="5" fill="#02326B" />
<rect x="122" y="182" width="1" height="5" fill="#9DD6F3" />
<rect x="155" y="184" width="16" height="8" fill="#9DD6F3" />
<rect x="171" y="184" width="5" height="16" fill="#02326B" />
<rect x="176" y="184" width="7" height="16" fill="#9DD6F3" />
<rect x="197" y="184" width="8" height="26" fill="#9DD6F3" />
<rect x="205" y="184" width="5" height="5" fill="#02326B" />
<rect x="210" y="184" width="5" height="5" fill="#9DD6F3" />
<rect x="215" y="184" width="8" height="5" fill="#02326B" />
<rect x="223" y="184" width="15" height="17" fill="#9DD6F3" />
<rect x="238" y="184" width="5" height="13" fill="#02326B" />
<rect x="93" y="187" width="5" height="5" fill="#02326B" />
<rect x="98" y="187" width="8" height="25" fill="#9DD6F3" />
<rect x="111" y="187" width="11" height="30" fill="#9DD6F3" />
<rect x="122" y="187" width="15" height="5" fill="#02326B" />
<rect x="137" y="187" width="2" height="5" fill="#9DD6F3" />
<rect x="205" y="189" width="5" height="26" fill="#9DD6F3" />
<rect x="210" y="189" width="5" height="5" fill="#02326B" />
<rect x="215" y="189" width="8" height="31" fill="#9DD6F3" />
<rect x="88" y="192" width="5" height="15" fill="#02326B" />
<rect x="93" y="192" width="5" height="15" fill="#9DD6F3" />
<rect x="122" y="192" width="15" height="30" fill="#9DD6F3" />
<rect x="137" y="192" width="19" height="5" fill="#02326B" />
<rect x="156" y="192" width="15" height="8" fill="#9DD6F3" />
<rect x="210" y="194" width="5" height="26" fill="#9DD6F3" />
<rect x="137" y="197" width="19" height="20" fill="#9DD6F3" />
<rect x="238" y="197" width="5" height="4" fill="#9DD6F3" />
<rect x="243" y="197" width="5" height="24" fill="#02326B" />
<rect x="156" y="200" width="6" height="5" fill="#9DD6F3" />
<rect x="162" y="200" width="14" height="17" fill="#FFFFFF" />
<rect x="176" y="200" width="5" height="5" fill="#02326B" />
<rect x="181" y="200" width="2" height="5" fill="#9DD6F3" />
<rect x="223" y="201" width="11" height="14" fill="#9DD6F3" />
<rect x="234" y="201" width="5" height="14" fill="#02326B" />
<rect x="239" y="201" width="4" height="43" fill="#9DD6F3" />
<rect x="156" y="205" width="1" height="12" fill="#9DD6F3" />
<rect x="157" y="205" width="5" height="12" fill="#FFFFFF" />
<rect x="176" y="205" width="5" height="27" fill="#FFFFFF" />
<rect x="181" y="205" width="9" height="5" fill="#02326B" />
<rect x="190" y="205" width="7" height="5" fill="#9DD6F3" />
<rect x="93" y="207" width="5" height="5" fill="#02326B" />
<rect x="181" y="210" width="9" height="15" fill="#FFFFFF" />
<rect x="190" y="210" width="10" height="5" fill="#02326B" />
<rect x="200" y="210" width="5" height="5" fill="#9DD6F3" />
<rect x="248" y="211" width="10" height="5" fill="#02326B" />
<rect x="98" y="212" width="11" height="5" fill="#02326B" />
<rect x="109" y="212" width="2" height="5" fill="#9DD6F3" />
<rect x="276" y="212" width="13" height="5" fill="#02326B" />
<rect x="190" y="215" width="10" height="10" fill="#FFFFFF" />
<rect x="200" y="215" width="7" height="5" fill="#02326B" />
<rect x="207" y="215" width="3" height="5" fill="#9DD6F3" />
<rect x="223" y="215" width="6" height="5" fill="#9DD6F3" />
<rect x="229" y="215" width="5" height="5" fill="#02326B" />
<rect x="234" y="215" width="5" height="29" fill="#9DD6F3" />
<rect x="248" y="216" width="10" height="5" fill="#9DD6F3" />
<rect x="258" y="216" width="5" height="5" fill="#02326B" />
<rect x="109" y="217" width="11" height="5" fill="#02326B" />
<rect x="120" y="217" width="2" height="5" fill="#9DD6F3" />
<rect x="137" y="217" width="8" height="5" fill="#9DD6F3" />
<rect x="145" y="217" width="19" height="5" fill="#02326B" />
<rect x="164" y="217" width="12" height="10" fill="#FFFFFF" />
<rect x="271" y="217" width="5" height="5" fill="#02326B" />
<rect x="276" y="217" width="13" height="9" fill="#FEB3B7" />
<rect x="289" y="217" width="5" height="5" fill="#02326B" />
<rect x="200" y="220" width="7" height="5" fill="#FFFFFF" />
<rect x="207" y="220" width="22" height="5" fill="#02326B" />
<rect x="229" y="220" width="5" height="24" fill="#9DD6F3" />
<rect x="243" y="221" width="5" height="17" fill="#9DD6F3" />
<rect x="248" y="221" width="5" height="17" fill="#02326B" />
<rect x="253" y="221" width="10" height="12" fill="#9DD6F3" />
<rect x="263" y="221" width="8" height="5" fill="#02326B" />
<rect x="120" y="222" width="15" height="5" fill="#02326B" />
<rect x="135" y="222" width="5" height="5" fill="#9DD6F3" />
<rect x="140" y="222" width="5" height="5" fill="#02326B" />
<rect x="145" y="222" width="19" height="40" fill="#9DD6F3" />
<rect x="271" y="222" width="5" height="4" fill="#FEB3B7" />
<rect x="289" y="222" width="5" height="15" fill="#FEB3B7" />
<rect x="294" y="222" width="6" height="5" fill="#02326B" />
<rect x="181" y="225" width="8" height="5" fill="#FFFFFF" />
<rect x="189" y="225" width="18" height="5" fill="#02326B" />
<rect x="207" y="225" width="22" height="19" fill="#9DD6F3" />
<rect x="263" y="226" width="8" height="12" fill="#9DD6F3" />
<rect x="271" y="226" width="8" height="5" fill="#02326B" />
<rect x="279" y="226" width="10" height="5" fill="#FEB3B7" />
<rect x="135" y="227" width="5" height="7" fill="#02326B" />
<rect x="140" y="227" width="5" height="43" fill="#9DD6F3" />
<rect x="164" y="227" width="5" height="14" fill="#9DD6F3" />
<rect x="169" y="227" width="7" height="5" fill="#FFFFFF" />
<rect x="294" y="227" width="6" height="5" fill="#FEB3B7" />
<rect x="300" y="227" width="5" height="5" fill="#02326B" />
<rect x="181" y="230" width="3" height="2" fill="#FFFFFF" />
<rect x="184" y="230" width="5" height="38" fill="#02326B" />
<rect x="189" y="230" width="18" height="38" fill="#9DD6F3" />
<rect x="271" y="231" width="8" height="7" fill="#9DD6F3" />
<rect x="279" y="231" width="5" height="7" fill="#02326B" />
<rect x="284" y="231" width="5" height="12" fill="#FEB3B7" />
<rect x="169" y="232" width="15" height="9" fill="#9DD6F3" />
<rect x="294" y="232" width="6" height="5" fill="#02326B" />
<rect x="253" y="233" width="5" height="5" fill="#02326B" />
<rect x="258" y="233" width="5" height="5" fill="#9DD6F3" />
<rect x="130" y="234" width="5" height="31" fill="#02326B" />
<rect x="135" y="234" width="5" height="31" fill="#9DD6F3" />
<rect x="289" y="237" width="5" height="6" fill="#02326B" />
<rect x="243" y="238" width="5" height="6" fill="#02326B" />
<rect x="258" y="238" width="21" height="5" fill="#02326B" />
<rect x="279" y="238" width="5" height="5" fill="#FEB3B7" />
<rect x="164" y="241" width="2" height="21" fill="#9DD6F3" />
<rect x="166" y="241" width="5" height="21" fill="#02326B" />
<rect x="171" y="241" width="13" height="4" fill="#9DD6F3" />
<rect x="279" y="243" width="10" height="5" fill="#02326B" />
<rect x="207" y="244" width="16" height="5" fill="#9DD6F3" />
<rect x="223" y="244" width="20" height="5" fill="#02326B" />
<rect x="171" y="245" width="13" height="5" fill="#02326B" />
<rect x="207" y="249" width="11" height="19" fill="#9DD6F3" />
<rect x="218" y="249" width="5" height="19" fill="#02326B" />
<rect x="145" y="262" width="16" height="8" fill="#9DD6F3" />
<rect x="161" y="262" width="5" height="8" fill="#02326B" />
<rect x="135" y="265" width="5" height="5" fill="#02326B" />
<rect x="189" y="268" width="5" height="5" fill="#02326B" />
<rect x="194" y="268" width="19" height="5" fill="#9DD6F3" />
<rect x="213" y="268" width="5" height="5" fill="#02326B" />
<rect x="140" y="270" width="21" height="5" fill="#02326B" />
<rect x="194" y="273" width="19" height="5" fill="#02326B" />
</svg>